<mxfile host="app.diagrams.net" modified="2024-05-13T16:47:02.426Z" agent="Mozilla/5.0 (X11; Linux x86_64) AppleWebKit/537.36 (KHTML, like Gecko) Chrome/123.0.0.0 Safari/537.36 OPR/109.0.0.0" version="24.4.0" etag="j-30uceRkDN3p3QGr0DV" type="github">
  <diagram name="Page-1" id="_KJ2PaB3qc0V81MYTCgC">
    <mxGraphModel>
      <root>
        <mxCell id="0" />
        <mxCell id="1" parent="0" />
      </root>
    </mxGraphModel>
  </diagram>
</mxfile>
